Simulation
nRows=26
nColumns=15
endheader
time  TH_x TH_y TH_z SC_y  SC_z  SC_x  AC_y  AC_z  AC_x  GH_y  GH_z  GH_yy  EL_x  PS_y
2.6910411985018725  0.000000  0.000000  0.000000  -20.371714718048803  -6.276322398728694  -12.766683730953032  52.33982590433172  10.813894081860168  0.05171375887104065  8.611032357521708  15.222392945144879  21.072455931171962  15.894995044392777  120.000000
2.7312059925093632  0.000000  0.000000  0.000000  -19.38851114360418  -7.177898887757528  -13.491347249633332  52.31584138093094  11.47979578557522  -0.1102336461696929  12.023549980625065  14.183537044975271  19.657600627157745  16.640042125111446  120.000000
2.771370786516854  0.000000  0.000000  0.000000  -18.615977658624498  -7.987249587917882  -14.16053765777343  52.24740105455785  12.108768535085341  -0.27861576206844296  16.064559102809227  13.238022363291526  17.36394844555252  17.30099266729983  120.000000
2.8115355805243447  0.000000  0.000000  0.000000  -18.040106011363008  -8.70928149113136  -14.794817748900556  52.125051075051665  12.684633822756318  -0.4437020969123101  20.735996707373996  12.377668857726459  14.196895682137388  17.852842451661225  120.000000
2.851700374531835  0.000000  0.000000  0.000000  -17.63837863396587  -9.348577274867084  -15.403837526690312  51.94744180535314  13.204584019668037  -0.6003553773620874  26.007304008878243  11.605326664021353  10.204335736210146  18.280640876557737  120.000000
2.8918651685393257  0.000000  0.000000  0.000000  -17.383295647247845  -9.90698737352003  -15.986132651751971  51.719345101303276  13.677829744323331  -0.7458179308222042  31.806353529666453  10.932195887342713  5.480615999024973  18.579816252932584  120.000000
2.9320299625468165  0.000000  0.000000  0.000000  -17.2463095079589  -10.384043532683949  -16.534182233635086  51.448255035991785  14.117099555318774  -0.8788259353012916  38.01609384885874  10.36852818199452  0.16550607839205692  18.755475719955367  120.000000
2.972194756554307  0.000000  0.000000  0.000000  -17.20114225909148  -10.780514626229087  -17.03998055084555  51.14458191975172  14.533263393411989  -1.000996225224186  44.4897834662246  9.918643315702598  -5.573716358186266  18.82036809206632  120.000000
3.012359550561798  0.000000  0.000000  0.000000  -17.224067339010052  -11.099602152877837  -17.495938222511057  50.82066351250789  14.93438309739909  -1.1150916241323703  51.06571100413703  9.580080264397195  -11.555522157714638  18.793787649379233  120.000000
3.0525243445692882  0.000000  0.000000  0.000000  -17.29451171389251  -11.346501795768472  -17.895428969263325  50.48871929012448  15.325456170331513  -1.222862571785654  57.58631234567118  9.345494907884444  -17.60373801928234  18.69913958872926  120.000000
3.092689138576779  0.000000  0.000000  0.000000  -17.39553551682356  -11.527738781627367  -18.23379099940994  50.160405051581144  15.70881538199669  -1.3247455293227157  63.91228711481267  9.203854676357285  -23.561431458033187  18.560857775829614  120.000000
3.1328539325842697  0.000000  0.000000  0.000000  -17.513867358386765  -11.650186342547348  -18.50912872542224  49.84552770468695  16.084837592281694  -1.420059965627538  69.92990517150317  9.141273411176538  -29.298137645200438  18.40131604518026  120.000000
3.1730187265917604  0.000000  0.000000  0.000000  -17.64007139024892  -11.719827419383623  -18.722042279482224  49.55240904626572  16.452576841684103  -1.5082905857097475  75.55762921712555  9.142594499230539  -34.71705245494409  18.237936944492258  120.000000
3.2131835205992507  0.000000  0.000000  0.000000  -17.76768291894445  -11.74149970047535  -18.874594084785603  49.286682965964395  16.810273379750726  -1.5884179153821687  80.74769455064188  9.191612028492287  -39.756063889904695  18.082219945397593  120.000000
3.2533483146067415  0.000000  0.000000  0.000000  -17.89211307503426  -11.719170633986733  -18.969705128863563  49.051699153112175  17.15592499754334  -1.6590080633086648  85.48423940754336  9.272574048056748  -44.38627241840852  17.939629619159156  120.000000
3.293513108614232  0.000000  0.000000  0.000000  -18.00964131012145  -11.655626920417669  -19.010608686557184  48.84942475194814  17.487896344885367  -1.7185303571619917  89.77514732175695  9.371203558459108  -48.603734394315325  17.81109187249348  120.000000
3.333677902621723  0.000000  0.000000  0.000000  -18.116758714708617  -11.552374302777674  -19.000101849313502  48.67993763579479  17.805474769683237  -1.7650397071958497  93.64373143645187  9.47458979824123  -52.42134233985367  17.69463356229933  120.000000
3.3738426966292137  0.000000  0.000000  0.000000  -18.209576881538734  -11.409855461319083  -18.940132957391477  48.54163093164161  18.109242485214697  -1.7961602846890616  97.12083734785507  9.57115487813249  -55.8609165408188  17.587034073469674  120.000000
3.414007490636704  0.000000  0.000000  0.000000  -18.283541074478443  -11.227422830624347  -18.831961995242352  48.43210430558746  18.400832491060754  -1.8095755313463897  100.23930675309423  9.650971268530771  -58.94784455100769  17.485540966636822  120.000000
3.4541722846441947  0.000000  0.000000  0.000000  -18.333774618228958  -11.003635762658817  -18.676560480300964  48.348741444098145  18.682513829957976  -1.803408230367068  103.0300049900252  9.705739903811908  -61.707192947545316  17.388499680961772  120.000000
3.4943370786516854  0.000000  0.000000  0.000000  -18.355411410119757  -10.736774951719479  -18.474397310689007  48.28839611953454  18.95687571437781  -1.776015393138012  105.51991033873817  9.728161636859662  -64.1618135752945  17.29532409969444  120.000000
3.534501872659176  0.000000  0.000000  0.000000  -18.34389933878535  -10.425108098556555  -18.22546681282694  48.247274814762854  19.226499115959037  -1.7256217098161406  107.73083072867291  9.711787806019654  -66.3311150201429  17.205881592433332  120.000000
3.574666666666667  0.000000  0.000000  0.000000  -18.295190930733114  -10.06748532603231  -17.929808057537365  48.2210582781792  19.49320745382554  -1.6501130613745751  109.68091614553701  9.651120002934965  -68.232567673816  17.11972922201699  120.000000
3.614831460674157  0.000000  0.000000  0.000000  -18.206412240761264  -9.664384881099105  -17.58814131587288  48.20504303775355  19.75721168483729  -1.547189442564329  111.38663191306685  9.54162569824897  -69.88366653196255  17.035044644449336  120.000000
3.654996254681648  0.000000  0.000000  0.000000  -18.076072094913226  -9.217512750412057  -17.20177874919594  48.19365538173451  20.01651633555004  -1.4142640009309035  112.86436683826834  9.379349220873364  -71.30348286106604  16.94790363694954  120.000000
3.6951610486891386  0.000000  0.000000  0.000000  -17.903943974290588  -8.728406330448543  -16.77238663905528  48.181335659938966  20.26734108803551  -1.2497763025348947  114.12603888556791  9.16094548690769  -72.5084109554448  16.852063972241442  120.000000
